<?xml version="1.0" encoding="UTF-8"?>
<svg xmlns="http://www.w3.org/2000/svg" viewBox="-2 -2 104 106" width="512" height="512">
  <!-- Head silhouette - blue base -->
  <path d="M 46.6,0.0 C 52.1,0.4 63.9,2.0 69.7,3.7 C 73.4,4.8 76.1,6.1 78.6,7.5 C 80.6,8.6 82.3,9.9 83.8,11.2 C 85.1,12.4 86.3,13.6 87.2,14.9 C 88.1,16.1 88.7,17.3 89.3,18.6 C 89.9,19.8 90.3,21.1 90.7,22.4 C 91.0,23.6 91.2,24.9 91.4,26.1 C 91.6,27.3 92.0,28.6 92.1,29.8 C 92.2,31.0 92.2,32.3 92.1,33.5 C 92.0,34.8 91.8,36.0 91.7,37.3 C 91.6,38.5 91.5,39.8 91.4,41.0 C 91.3,42.2 90.8,43.5 91.0,44.7 C 91.2,46.0 91.7,47.2 92.4,48.4 C 93.1,49.7 94.2,51.0 95.2,52.2 C 96.2,53.5 97.5,54.6 98.3,55.9 C 99.0,57.1 100.2,58.4 100.0,59.6 C 99.8,60.9 97.4,62.1 96.2,63.4 C 95.1,64.6 93.4,65.8 93.1,67.1 C 92.8,68.3 94.1,69.6 94.1,70.8 C 94.1,72.0 93.2,73.3 92.8,74.5 C 92.3,75.8 91.9,77.0 91.4,78.3 C 90.9,79.5 90.2,80.7 90.0,82.0 C 89.8,83.2 90.2,84.5 90.0,85.7 C 89.8,86.9 90.1,88.4 89.0,89.4 C 86.1,92.0 69.2,90.9 65.2,93.2 C 63.4,94.2 62.8,95.7 62.1,96.9 C 61.5,97.9 62.1,99.2 61.0,100.0 C 56.8,102.8 19.4,101.5 16.9,98.1 C 16.2,97.1 17.6,95.6 17.9,94.4 C 18.3,93.2 18.8,91.9 19.0,90.7 C 19.2,89.5 19.1,88.2 19.0,87.0 C 18.9,85.7 18.7,84.5 18.6,83.2 C 18.5,82.0 18.5,80.7 18.3,79.5 C 18.1,78.3 18.1,77.0 17.6,75.8 C 17.1,74.5 16.1,73.2 15.2,72.0 C 14.2,70.7 12.8,69.6 11.7,68.3 C 10.6,67.1 9.5,65.9 8.6,64.6 C 7.7,63.4 7.0,62.2 6.2,60.9 C 5.5,59.7 4.7,58.4 4.1,57.1 C 3.5,55.9 2.9,54.7 2.4,53.4 C 2.0,52.2 1.7,50.9 1.4,49.7 C 1.0,48.5 0.5,47.3 0.3,46.0 C 0.1,44.8 0.0,43.5 0.0,42.2 C -0.0,41.0 -0.0,39.7 0.0,38.5 C 0.0,37.3 0.1,36.0 0.3,34.8 C 0.5,33.6 0.7,32.3 1.0,31.1 C 1.4,29.8 1.9,28.6 2.4,27.3 C 2.9,26.1 3.2,24.8 3.8,23.6 C 4.4,22.3 5.1,21.1 5.9,19.9 C 6.7,18.6 7.6,17.3 8.6,16.1 C 9.6,14.8 10.5,13.6 11.7,12.4 C 13.0,11.1 14.6,9.9 16.2,8.7 C 18.0,7.4 19.8,6.1 22.1,5.0 C 24.9,3.6 29.0,2.0 32.1,1.2 C 34.8,0.5 37.2,0.2 39.7,0.0 Z" fill="#365a8a"/>

  <!-- Green header zone clipped to head -->
  <defs>
    <clipPath id="headClip">
      <path d="M 46.6,0.0 C 52.1,0.4 63.9,2.0 69.7,3.7 C 73.4,4.8 76.1,6.1 78.6,7.5 C 80.6,8.6 82.3,9.9 83.8,11.2 C 85.1,12.4 86.3,13.6 87.2,14.9 C 88.1,16.1 88.7,17.3 89.3,18.6 C 89.9,19.8 90.3,21.1 90.7,22.4 C 91.0,23.6 91.2,24.9 91.4,26.1 C 91.6,27.3 92.0,28.6 92.1,29.8 C 92.2,31.0 92.2,32.3 92.1,33.5 C 92.0,34.8 91.8,36.0 91.7,37.3 C 91.6,38.5 91.5,39.8 91.4,41.0 C 91.3,42.2 90.8,43.5 91.0,44.7 C 91.2,46.0 91.7,47.2 92.4,48.4 C 93.1,49.7 94.2,51.0 95.2,52.2 C 96.2,53.5 97.5,54.6 98.3,55.9 C 99.0,57.1 100.2,58.4 100.0,59.6 C 99.8,60.9 97.4,62.1 96.2,63.4 C 95.1,64.6 93.4,65.8 93.1,67.1 C 92.8,68.3 94.1,69.6 94.1,70.8 C 94.1,72.0 93.2,73.3 92.8,74.5 C 92.3,75.8 91.9,77.0 91.4,78.3 C 90.9,79.5 90.2,80.7 90.0,82.0 C 89.8,83.2 90.2,84.5 90.0,85.7 C 89.8,86.9 90.1,88.4 89.0,89.4 C 86.1,92.0 69.2,90.9 65.2,93.2 C 63.4,94.2 62.8,95.7 62.1,96.9 C 61.5,97.9 62.1,99.2 61.0,100.0 C 56.8,102.8 19.4,101.5 16.9,98.1 C 16.2,97.1 17.6,95.6 17.9,94.4 C 18.3,93.2 18.8,91.9 19.0,90.7 C 19.2,89.5 19.1,88.2 19.0,87.0 C 18.9,85.7 18.7,84.5 18.6,83.2 C 18.5,82.0 18.5,80.7 18.3,79.5 C 18.1,78.3 18.1,77.0 17.6,75.8 C 17.1,74.5 16.1,73.2 15.2,72.0 C 14.2,70.7 12.8,69.6 11.7,68.3 C 10.6,67.1 9.5,65.9 8.6,64.6 C 7.7,63.4 7.0,62.2 6.2,60.9 C 5.5,59.7 4.7,58.4 4.1,57.1 C 3.5,55.9 2.9,54.7 2.4,53.4 C 2.0,52.2 1.7,50.9 1.4,49.7 C 1.0,48.5 0.5,47.3 0.3,46.0 C 0.1,44.8 0.0,43.5 0.0,42.2 C -0.0,41.0 -0.0,39.7 0.0,38.5 C 0.0,37.3 0.1,36.0 0.3,34.8 C 0.5,33.6 0.7,32.3 1.0,31.1 C 1.4,29.8 1.9,28.6 2.4,27.3 C 2.9,26.1 3.2,24.8 3.8,23.6 C 4.4,22.3 5.1,21.1 5.9,19.9 C 6.7,18.6 7.6,17.3 8.6,16.1 C 9.6,14.8 10.5,13.6 11.7,12.4 C 13.0,11.1 14.6,9.9 16.2,8.7 C 18.0,7.4 19.8,6.1 22.1,5.0 C 24.9,3.6 29.0,2.0 32.1,1.2 C 34.8,0.5 37.2,0.2 39.7,0.0 Z"/>
    </clipPath>
  </defs>
  <rect x="-5" y="-5" width="110" height="45" fill="#8bc225" clip-path="url(#headClip)"/>

  <!-- Title line (green zone) -->
  <line x1="16.6" y1="16" x2="52" y2="16" stroke="#ffffff" stroke-width="2.8" stroke-linecap="round"/>
  <circle cx="16.6" cy="16" r="2.8" fill="#ffffff"/>
  <circle cx="52" cy="16" r="2.8" fill="#ffffff"/>

  <!-- Subtitle line (green zone) -->
  <line x1="9.4" y1="30" x2="72" y2="30" stroke="#ffffff" stroke-width="2" stroke-linecap="round" opacity="0.7"/>
  <circle cx="9.4" cy="30" r="2.2" fill="#ffffff" opacity="0.8"/>
  <circle cx="72" cy="30" r="2.2" fill="#ffffff" opacity="0.8"/>

  <!-- Body line 1 (blue zone) -->
  <line x1="8.7" y1="48" x2="84.1" y2="48" stroke="#ffffff" stroke-width="2" stroke-linecap="round" opacity="0.8"/>
  <circle cx="8.7" cy="48" r="2.2" fill="#91bb00"/>
  <circle cx="84.1" cy="48" r="2.2" fill="#91bb00"/>

  <!-- Body line 2 (blue zone) -->
  <line x1="13.5" y1="60" x2="78" y2="60" stroke="#ffffff" stroke-width="2" stroke-linecap="round" opacity="0.8"/>
  <circle cx="13.5" cy="60" r="2.2" fill="#91bb00"/>
  <circle cx="78" cy="60" r="2.2" fill="#91bb00"/>

  <!-- Body line 3 with red caret (blue zone) -->
  <line x1="22.8" y1="72" x2="62" y2="72" stroke="#ffffff" stroke-width="2" stroke-linecap="round" opacity="0.8"/>
  <circle cx="22.8" cy="72" r="2.2" fill="#91bb00"/>
  <rect x="61" y="67" width="3" height="10" rx="1.2" fill="#de4050"/>

  <!-- Body line 4 (blue zone) -->
  <line x1="26.6" y1="84" x2="82.0" y2="84" stroke="#ffffff" stroke-width="2" stroke-linecap="round" opacity="0.8"/>
  <circle cx="26.6" cy="84" r="2.2" fill="#91bb00"/>
  <circle cx="82.0" cy="84" r="2.2" fill="#91bb00"/>
</svg>
