<?xml version="1.0" encoding="UTF-8"?>
<svg xmlns="http://www.w3.org/2000/svg" viewBox="0 10 100 100" width="512" height="512">
  <!-- Blue document body -->
  <path d="M15,10 L15,110 L85,110 L85,28 L67,10 Z" fill="#365a8a"/>
  <!-- Darker fold triangle -->
  <path d="M67,10 L85,28 L67,28 Z" fill="#2a4a74"/>
  <!-- Green header overlay -->
  <path d="M15,10 L67,10 L67,28 L85,28 L85,48 L15,48 Z" fill="#8bc225"/>
  <!-- Darker green fold -->
  <path d="M67,10 L85,28 L67,28 Z" fill="#6a9a1a"/>

  <!-- Title in green zone -->
  <line x1="28" y1="22" x2="50" y2="22" stroke="#ffffff" stroke-width="2.5" stroke-linecap="round"/>
  <circle cx="28" cy="22" r="2.5" fill="#ffffff"/>
  <circle cx="50" cy="22" r="2.5" fill="#ffffff"/>

  <!-- Subtitle in green zone -->
  <line x1="28" y1="38" x2="72" y2="38" stroke="#ffffff" stroke-width="1.8" stroke-linecap="round" opacity="0.7"/>
  <circle cx="28" cy="38" r="2" fill="#ffffff" opacity="0.7"/>
  <circle cx="72" cy="38" r="2" fill="#ffffff" opacity="0.7"/>

  <!-- Body lines in blue zone -->
  <line x1="28" y1="58" x2="72" y2="58" stroke="#ffffff" stroke-width="1.8" stroke-linecap="round" opacity="0.8"/>
  <circle cx="28" cy="58" r="2" fill="#91bb00"/>
  <circle cx="72" cy="58" r="2" fill="#91bb00"/>

  <line x1="28" y1="71" x2="65" y2="71" stroke="#ffffff" stroke-width="1.8" stroke-linecap="round" opacity="0.8"/>
  <circle cx="28" cy="71" r="2" fill="#91bb00"/>
  <circle cx="65" cy="71" r="2" fill="#91bb00"/>

  <line x1="28" y1="84" x2="55" y2="84" stroke="#ffffff" stroke-width="1.8" stroke-linecap="round" opacity="0.8"/>
  <circle cx="28" cy="84" r="2" fill="#91bb00"/>
  <rect x="54" y="79" width="3" height="11" rx="1" fill="#de4050"/>

  <line x1="28" y1="97" x2="72" y2="97" stroke="#ffffff" stroke-width="1.8" stroke-linecap="round" opacity="0.8"/>
  <circle cx="28" cy="97" r="2" fill="#91bb00"/>
  <circle cx="72" cy="97" r="2" fill="#91bb00"/>
</svg>
